#!OML:ASF F:\VICON\USERDATA\INSTALL\rory3\rory3.ASF
:FULLY-SPECIFIED
:DEGREES
54
root -0.36040591274810696 17.83643551372289 5.887223426844717 5.930214017247867 -2.0293699582619773 -1.197865463044867
lfemur 11.871545724917855 -0.03653093370440824 -24.384514348344048
ltibia 33.87988434788504
lfoot -2.591911884223017 -6.5576745548619515
ltoes -13.331974889042057
rfemur -48.19490727210853 0.6461005319104697 26.094256458756632
rtibia 56.82685335993615
rfoot 11.57325067128049 -8.923288347778675
rtoes 21.240909270278106
lowerback 14.58929948629133 -0.7929669157347018 -2.0524512214072135
upperback -1.399108861296668 -1.2353588253985042 2.3943698836791176
thorax -9.957255192149953 -0.4647502369358423 3.8472584842929374
lowerneck -21.338200063600336 -2.4576721967425446 -2.179006046937231
upperneck 14.543970548946305 -3.168374859365526 2.7702792252335704
head 8.34929715141655 -1.216328241584057 0.665600983136946
lclavicle 7.933867044298223e-17 -3.5106937240604037e-16
lhumerus -38.854787947383855 -13.353470683794036 94.43369535174199
lradius 115.48137286895319
lwrist 35.75552367245404
lhand -24.613526692371124 2.161063336631503
lfingers 7.12502
lthumb 2.1644170449826072 31.820280564144703
rclavicle 7.933867062286776e-17 -3.5106937227098753e-16
rhumerus -57.772325046041715 8.509110883005427 -99.0349245372523
rradius 107.7912068120974
rwrist -11.363956410346903
rhand -16.019809943491122 40.182147578698086
rfingers 7.12502
rthumb 9.914491764190073 10.518639234881393
55
root -0.34529981728811965 17.89489808728699 6.205438907751076 5.955987644325784 -2.2707458001905323 -1.3383611914180886
lfemur 12.777066334335139 -0.4395786197663598 -24.304302803623177
ltibia 33.93090578898608
lfoot -1.3380447775662418 -6.750812015045415
ltoes -14.693794386396114
rfemur -47.5905549475398 0.9042741875283125 26.40613641266541
rtibia 52.97535697788831
rfoot 11.173658622427231 -8.816041502468137
rtoes 21.916169919107112
lowerback 14.486196230259198 -0.7975067502660463 -1.8258397263477324
upperback -1.485228328998581 -1.2076821514551004 2.4971317007148652
thorax -9.926932815732096 -0.45701007553743933 3.92892883576427
lowerneck -21.039083121639635 -2.394606500304238 -2.197025839404717
upperneck 14.877900787817982 -3.061307823682797 2.670968040383259
head 8.401271462261196 -1.1916197086040043 0.6499153047331695
lclavicle 7.933867044627557e-17 -3.510693724028078e-16
lhumerus -39.35371579155749 -13.105665611368021 94.44787033607727
lradius 115.72764170688347
lwrist 35.620345340465775
lhand -24.29033369193006 2.1740646183688135
lfingers 7.12502
lthumb 2.30101726194977 31.69471982271844
rclavicle 7.933867061509504e-17 -3.5106937227629376e-16
rhumerus -58.198466013386955 8.273592256256132 -98.68151668123352
rradius 108.06522380612378
rwrist -11.507690984127473
rhand -16.130894337133874 40.446561632841444
rfingers 7.12502
rthumb 9.78829734482669 10.723941328196167
56
root -0.3289605664560934 17.956510786006724 6.563550431161724 5.962758760919138 -2.4723359323905445 -1.4595106651938472
lfemur 13.459910585410288 -0.8803708692598009 -24.26577911695981
ltibia 34.25443647469817
lfoot 0.13034528767920128 -6.989536401235087
ltoes -14.935016394814737
rfemur -46.75056654055139 1.073644616702691 26.71807958619468
rtibia 49.30651466545798
rfoot 10.678220121274746 -8.676528660536231
rtoes 21.602029408237584
lowerback 14.38893769062103 -0.791111735214942 -1.5891912323981545
upperback -1.5494212151816864 -1.174072817864874 2.5737584541438663
thorax -9.87930189465304 -0.4416837319850624 4.006547227022962
lowerneck -20.800394516350913 -2.344592833341335 -2.212414985869213
upperneck 15.20836123537935 -2.9777703997072695 2.558752805113515
head 8.449063869651994 -1.1731248750745702 0.6319058404913845
lclavicle 7.933867044992752e-17 -3.5106937239931445e-16
lhumerus -39.92323707515091 -12.777705253665856 94.50152294567044
lradius 115.88911708404672
lwrist 35.39095906345876
lhand -24.04624564742689 2.1166164924560245
lfingers 7.12502
lthumb 2.4828341136588117 31.587361751282888
rclavicle 7.933867060847856e-17 -3.510693722806911e-16
rhumerus -58.601663189450754 7.981449546728921 -98.29736380190667
rradius 108.34110303825345
rwrist -11.554808923364892
rhand -16.218806698570408 40.74066808158988
rfingers 7.12502
rthumb 9.674816800797894 10.989297912527459
57
root -0.28968154179387845 18.014856119727057 7.225115568490697 5.855519222963791 -2.501309865788568 -1.5495498634702651
lfemur 13.983243996690465 -1.406040233689167 -24.25575998979788
ltibia 34.83550990600722
lfoot 1.8268449605645365 -6.901796986838786
ltoes -14.934994144887746
rfemur -45.71897353854352 0.9809144154783332 26.993488550597604
rtibia 45.87750613149473
rfoot 10.27538741183448 -8.309804679432508
rtoes 20.27406415722623
lowerback 14.282293852199192 -0.8234380719549893 -1.2847611429440375
upperback -1.6506505521952035 -1.1922676590216776 2.6041704785104933
thorax -9.829620570228577 -0.47367567917598263 3.956037862700086
lowerneck -20.633490948309902 -2.303694443116399 -2.218739389152773
upperneck 15.521140402446104 -2.9044799861319897 2.443935830951826
head 8.485811217916766 -1.1568990999696425 0.6120300739634713
lclavicle 7.933867045196755e-17 -3.5106937239709104e-16
lhumerus -40.55118924638189 -12.66914611794725 94.59689178642508
lradius 115.88907521937888
lwrist 35.152244413242855
lhand -23.860073941022442 1.978729554133074
lfingers 7.12502
lthumb 2.687476028710809 31.552686853270714
rclavicle 7.933867060304618e-17 -3.5106937228419484e-16
rhumerus -59.021664662440195 7.646021861784373 -97.90347637181203
rradius 108.62127435970093
rwrist -11.689891394064455
rhand -16.281117159720072 41.003397946835285
rfingers 7.12502
rthumb 9.595323599902141 11.24067149166165
